<svg width="737" height="737" viewBox="0 0 737 737" fill="none" xmlns="http://www.w3.org/2000/svg">
<rect width="737" height="737" fill="#292929"/>
<path fill-rule="evenodd" clip-rule="evenodd" d="M209.242 535.659C206.855 541.397 204.682 546.808 202.708 551.9V91.7C202.708 86.9 206.609 83 211.409 83H439.708C506.008 84 563.909 119.3 596.609 172C597.908 174.099 599.207 176.297 600.506 178.496L600.508 178.5C578.888 156.248 543.902 142.99 512.363 142.976C543.876 143.018 578.811 156.272 600.408 178.5C615.908 205.8 624.708 237.3 624.708 270.9C624.708 340.7 586.708 401.5 530.308 433.9C526.308 436.2 524.808 441.3 526.908 445.4L623.308 636.2C626.208 642 622.008 648.9 615.508 648.9H246.837C234.935 654.84 217.451 656.018 205.082 648.262C205.091 648.275 205.1 648.287 205.108 648.3C204.796 648.096 204.487 647.888 204.179 647.673C202.195 646.331 200.356 644.746 198.708 642.9C194.698 638.407 190.015 633.078 188.5 622.179C188.01 618.654 187.851 614.548 188.154 609.698C189.116 594.262 194.749 571.303 209.242 535.659ZM503.171 315.17C496.688 320.595 489.251 326.817 480.838 334.171C472.443 341.51 463.074 349.975 452.708 359.9C444.777 367.494 436.831 375.8 428.921 384.649C373.552 446.591 319.959 535.12 285.451 592.122L285.444 592.133L285.426 592.163L285.423 592.168C277.098 605.921 269.884 617.836 264.026 627.098C260.099 633.306 256.782 638.321 254.146 641.899C260.72 632.98 271.536 615.122 285.458 592.135L285.458 592.135L285.458 592.134C324.897 527.017 389.258 420.75 452.708 360C473.44 340.151 490.183 326.138 503.13 315.303C522.85 298.798 533.766 289.663 536.558 278.496C536.621 278.248 536.679 277.998 536.733 277.747C536.685 277.963 536.635 278.178 536.581 278.392C533.788 289.551 522.88 298.678 503.171 315.17ZM247.02 648.808C247.63 648.538 248.169 648.259 248.707 647.901C248.159 648.214 247.596 648.517 247.02 648.808Z" fill="url(#paint0_linear)"/>
<path fill-rule="evenodd" clip-rule="evenodd" d="M198.745 83C196.568 83 194.16 83.1903 191.827 83.8116L92.774 109.398C85.6864 110.997 80.1939 115.44 76.8966 121.642C73.8734 127.328 73 133.854 73 139.98V176.14C73 182.493 73.6643 189.438 76.515 195.185C78.0547 198.289 80.5096 201.599 84.3457 203.941C88.2723 206.338 92.527 207.036 96.4148 206.705C96.7886 206.674 97.0495 206.638 97.132 206.627L97.1322 206.627L97.1473 206.625C97.4205 206.588 97.6398 206.55 97.7559 206.53C97.9966 206.487 98.1994 206.445 98.3068 206.422C98.5414 206.373 98.7826 206.318 98.9827 206.271C99.4032 206.174 99.9576 206.04 100.614 205.879C101.943 205.554 103.871 205.073 106.381 204.442C109 203.784 112.282 202.956 116.226 201.957V612.715C116.226 621.616 117.002 629.97 119.472 636.58C120.741 639.978 122.782 643.804 126.227 646.875C129.963 650.204 134.65 652 139.668 652H197.209C202.146 652 206.817 650.298 210.607 647.037C214.13 644.007 216.257 640.192 217.595 636.746C220.186 630.071 221 621.65 221 612.715V114.732C221 108.192 220.318 101.285 217.638 95.5239C216.211 92.4577 213.977 89.1929 210.49 86.7057C206.869 84.1228 202.761 83 198.745 83Z" fill="url(#paint1_linear)"/>
<path fill-rule="evenodd" clip-rule="evenodd" d="M419.745 83C417.568 83 415.16 83.1903 412.827 83.8116L313.774 109.398C306.686 110.997 301.194 115.44 297.897 121.642C294.873 127.328 294 133.854 294 139.98V176.14C294 182.493 294.664 189.438 297.515 195.185C299.055 198.289 301.51 201.599 305.346 203.941C309.272 206.338 313.527 207.036 317.415 206.705C317.789 206.674 318.05 206.638 318.132 206.627L318.132 206.627L318.147 206.625C318.421 206.588 318.64 206.55 318.756 206.53C318.997 206.487 319.199 206.445 319.307 206.422C319.541 206.373 319.783 206.318 319.983 206.271C320.403 206.174 320.958 206.04 321.614 205.879C322.943 205.554 324.871 205.073 327.381 204.442C330 203.784 333.282 202.956 337.226 201.957V612.715C337.226 621.616 338.002 629.97 340.472 636.58C341.741 639.978 343.782 643.804 347.227 646.875C350.963 650.204 355.65 652 360.668 652H418.209C423.146 652 427.817 650.298 431.607 647.037C435.13 644.007 437.257 640.192 438.595 636.746C441.186 630.071 442 621.65 442 612.715V114.732C442 108.192 441.318 101.285 438.638 95.5239C437.211 92.4577 434.977 89.1929 431.49 86.7057C427.869 84.1228 423.761 83 419.745 83Z" fill="url(#paint2_linear)"/>
<defs>
<linearGradient id="paint0_linear" x1="188" y1="83" x2="625" y2="654" gradientUnits="userSpaceOnUse">
<stop offset="0.0306839" stop-color="#FF3333"/>
<stop offset="1" stop-color="#D93336"/>
</linearGradient>
<linearGradient id="paint1_linear" x1="73" y1="83" x2="194" y2="652" gradientUnits="userSpaceOnUse">
<stop stop-color="#FCC777"/>
<stop offset="1" stop-color="#FB9440"/>
</linearGradient>
<linearGradient id="paint2_linear" x1="294" y1="83" x2="415" y2="652" gradientUnits="userSpaceOnUse">
<stop stop-color="#FCC777"/>
<stop offset="1" stop-color="#FB9440"/>
</linearGradient>
</defs>
</svg>
